<?xml version="1.0" standalone="no"?>
<!DOCTYPE svg PUBLIC "-//W3C//DTD SVG 20010904//EN"
 "http://www.w3.org/TR/2001/REC-SVG-20010904/DTD/svg10.dtd">
<svg version="1.0" xmlns="http://www.w3.org/2000/svg"
 width="382.000000pt" height="368.000000pt" viewBox="0 0 382.000000 368.000000"
 preserveAspectRatio="xMidYMid meet">

<g transform="translate(0.000000,368.000000) scale(0.100000,-0.100000)"
fill="#000000" stroke="none">
<path d="M1885 3394 c-22 -13 -49 -29 -60 -34 -11 -5 -38 -21 -60 -35 -22 -13
-53 -31 -70 -40 -16 -8 -46 -25 -65 -36 -19 -12 -64 -37 -100 -57 -36 -19 -67
-38 -70 -41 -3 -4 -16 -12 -30 -19 -14 -7 -34 -18 -45 -25 -11 -7 -56 -32
-100 -56 -44 -24 -81 -48 -83 -52 -2 -5 -8 -9 -13 -9 -10 0 -240 -129 -249
-140 -3 -3 -16 -11 -30 -17 -14 -6 -95 -52 -180 -101 l-155 -89 -3 -769 c-1
-423 0 -779 3 -792 3 -12 10 -22 15 -22 9 0 48 -21 138 -75 9 -6 51 -29 92
-53 41 -24 93 -54 115 -68 22 -13 49 -29 60 -34 11 -5 38 -21 60 -35 22 -13
54 -31 70 -40 17 -8 48 -26 70 -40 22 -14 49 -30 60 -35 11 -5 38 -21 60 -35
22 -13 54 -31 70 -40 17 -8 48 -26 70 -40 22 -14 47 -28 55 -32 8 -3 26 -14
40 -23 14 -10 45 -28 70 -42 63 -35 120 -68 152 -87 141 -86 159 -94 187 -80
14 8 28 17 31 20 3 3 30 19 60 35 30 16 60 34 67 41 7 6 23 15 36 19 12 4 24
10 27 13 3 4 43 28 90 54 47 27 92 52 100 58 8 5 26 15 40 21 14 7 27 15 30
18 3 4 120 72 260 154 140 81 262 151 270 156 8 5 53 30 100 57 47 26 87 49
90 52 3 4 31 20 62 36 63 33 81 55 45 55 l-22 0 3 758 2 758 -22 21 c-27 26
-1206 709 -1260 731 -32 13 -37 18 -32 38 8 30 0 29 -51 -2z m631 -406 c317
-183 600 -346 630 -363 l54 -29 0 -737 0 -737 -265 -154 c-146 -84 -283 -163
-303 -175 -20 -12 -44 -26 -52 -30 -20 -10 -163 -92 -206 -118 -18 -11 -57
-33 -86 -49 -29 -15 -60 -34 -68 -40 -8 -7 -26 -18 -40 -24 -14 -7 -43 -23
-65 -37 -22 -13 -49 -29 -60 -35 -70 -38 -99 -57 -103 -67 -2 -7 3 -13 12 -13
19 0 21 -16 3 -23 -27 -10 -97 26 -489 253 -222 129 -488 283 -593 343 -104
60 -205 121 -222 134 l-33 24 0 747 c0 660 2 750 16 770 20 29 36 28 28 -3 -3
-14 -4 -25 -1 -25 4 0 349 198 597 343 19 11 60 33 90 50 30 16 62 35 70 41 8
6 26 17 39 24 13 8 40 23 60 35 20 11 47 27 61 34 14 8 43 25 65 39 22 13 49
29 60 34 11 5 38 21 60 35 22 14 54 32 70 41 17 8 41 22 55 29 14 8 29 15 33
15 4 0 267 -150 583 -332z"/>
<path d="M1480 2530 c-36 -22 -71 -39 -77 -40 -7 0 -13 -4 -13 -9 0 -5 -16
-15 -35 -22 -19 -7 -35 -15 -35 -19 0 -3 -25 -18 -55 -35 l-55 -29 2 -534 3
-534 50 -29 c28 -16 59 -34 70 -39 11 -6 38 -21 60 -35 22 -14 54 -32 70 -40
17 -8 48 -26 70 -40 22 -14 47 -28 55 -32 8 -3 22 -11 30 -18 8 -7 40 -26 70
-42 30 -17 71 -40 90 -51 19 -12 40 -24 46 -27 12 -6 344 182 344 195 0 5 -10
10 -21 12 -21 3 -21 8 -20 125 1 67 -3 140 -9 161 -15 59 -74 116 -180 175
l-95 53 -8 140 c-8 166 -8 167 -1 321 6 133 -4 173 -59 239 -28 33 -168 119
-212 130 -23 6 -25 10 -20 35 4 16 5 29 3 29 -2 -1 -32 -18 -68 -40z m145
-111 c39 -22 78 -42 87 -45 37 -13 24 -32 -50 -74 -101 -58 -124 -80 -82 -80
15 0 20 -7 20 -25 0 -30 8 -28 102 27 36 21 71 38 77 38 7 0 11 -38 11 -108 0
-117 -2 -122 -60 -150 -38 -19 -66 -36 -85 -52 -15 -13 -15 -15 -1 -25 13 -10
11 -16 -19 -43 -45 -39 -46 -55 -2 -40 17 7 38 18 45 25 7 7 24 16 38 19 13 3
24 9 24 13 0 4 11 13 25 19 34 16 36 8 33 -118 l-3 -104 -63 -36 c-35 -20 -70
-44 -79 -53 -15 -15 -15 -17 0 -23 9 -3 17 -12 17 -19 0 -28 24 -27 78 1 31
16 62 35 70 42 7 6 19 12 25 12 19 -1 190 -104 190 -115 0 -5 -39 -33 -86 -61
-67 -39 -84 -53 -75 -62 7 -7 17 -12 24 -12 7 0 9 -10 6 -25 l-4 -25 48 25
c57 30 78 42 117 68 l28 18 -3 -122 -3 -123 -55 -30 c-99 -55 -101 -58 -84
-77 15 -16 13 -19 -16 -34 -17 -9 -43 -15 -57 -13 l-26 3 2 152 2 152 -48 31
c-26 16 -87 49 -135 72 -70 35 -87 47 -88 65 0 12 -9 27 -20 33 -16 9 -18 15
-10 30 14 26 13 307 -1 316 -8 4 -8 9 0 17 7 7 11 63 11 148 l0 137 -110 62
c-61 34 -119 64 -130 67 -28 7 -25 39 6 68 31 29 43 31 58 10 10 -14 17 -13
56 10 62 34 103 54 115 54 6 0 42 -18 80 -40z m-309 -151 c8 -7 21 -19 29 -25
7 -7 16 -13 20 -13 3 0 35 -17 71 -37 l65 -38 -2 -127 c-2 -104 -5 -128 -16
-128 -8 0 -47 16 -86 35 -39 19 -81 35 -93 35 -32 0 -44 49 -44 173 0 123 16
158 56 125z m18 -351 c17 -13 38 -26 46 -30 8 -4 38 -20 65 -36 l50 -29 1
-131 c1 -95 -2 -131 -10 -131 -7 0 -43 16 -82 35 -38 19 -81 35 -96 35 -23 0
-29 6 -37 38 -12 40 -15 213 -5 250 8 28 29 28 68 -1z m61 -375 l100 -58 2
-127 c1 -125 1 -127 -21 -127 -27 0 -175 83 -198 111 -15 17 -18 41 -18 124 0
108 5 135 24 135 6 0 56 -26 111 -58z m195 -117 c5 3 14 -1 22 -8 7 -7 24 -18
38 -25 14 -7 39 -21 55 -32 17 -11 42 -26 58 -32 27 -12 27 -13 29 -115 1 -57
2 -113 2 -125 2 -41 -41 -34 -134 22 -47 28 -96 62 -110 75 -23 23 -24 27 -12
70 7 25 12 65 12 89 0 47 19 110 27 88 3 -6 8 -10 13 -7z"/>
</g>
</svg>
